<svg id="Ebene_1" data-name="Ebene 1" xmlns="http://www.w3.org/2000/svg" viewBox="0 0 1133.86 17.01"><defs><style>.cls-1{fill:#fff;}.cls-2{fill:#1a1a18;}</style></defs><title>fifty_year</title><polygon class="cls-1" points="336.58 0 323.23 17.01 326.85 17.01 340.2 0 336.58 0"/><polygon class="cls-1" points="355.44 0 342.08 17.01 346.18 17.01 359.53 0 355.44 0"/><polygon class="cls-1" points="374.77 0 361.41 17.01 365.98 17.01 379.33 0 374.77 0"/><polygon class="cls-1" points="13.35 0 0 17.01 0.95 17.01 14.3 0 13.35 0"/><polygon class="cls-1" points="32.45 0 19.09 17.01 20.04 17.01 33.39 0 32.45 0"/><polygon class="cls-1" points="51.54 0 38.18 17.01 39.13 17.01 52.48 0 51.54 0"/><polygon class="cls-1" points="70.63 0 57.28 17.01 58.22 17.01 71.58 0 70.63 0"/><polygon class="cls-1" points="89.72 0 76.37 17.01 77.31 17.01 90.67 0 89.72 0"/><polygon class="cls-1" points="108.81 0 95.46 17.01 96.41 17.01 109.76 0 108.81 0"/><polygon class="cls-1" points="127.91 0 114.55 17.01 115.5 17.01 128.85 0 127.91 0"/><polygon class="cls-1" points="147 0 133.64 17.01 134.59 17.01 147.94 0 147 0"/><polygon class="cls-1" points="166.09 0 152.74 17.01 153.68 17.01 167.04 0 166.09 0"/><polygon class="cls-1" points="185.18 0 171.83 17.01 172.78 17.01 186.13 0 185.18 0"/><polygon class="cls-1" points="204.27 0 190.92 17.01 191.87 17.01 205.22 0 204.27 0"/><polygon class="cls-1" points="223.37 0 210.01 17.01 210.96 17.01 224.31 0 223.37 0"/><polygon class="cls-1" points="242.46 0 229.1 17.01 230.05 17.01 243.4 0 242.46 0"/><polygon class="cls-1" points="261.29 0 247.94 17.01 249.4 17.01 262.75 0 261.29 0"/><polygon class="cls-1" points="280.15 0 266.79 17.01 268.73 17.01 282.08 0 280.15 0"/><polygon class="cls-1" points="299 0 285.65 17.01 288.06 17.01 301.41 0 299 0"/><polygon class="cls-1" points="317.71 0 304.35 17.01 307.54 17.01 320.89 0 317.71 0"/><polygon class="cls-1" points="1125.92 17.01 1003.66 17.01 1017.02 0 1125.92 0 1133.86 8.5 1125.92 17.01"/><polygon class="cls-1" points="395.01 0 381.66 17.01 386.65 17.01 400.01 0 395.01 0"/><polygon class="cls-1" points="407.85 17.01 402.34 17.01 415.7 0 421.2 0 407.85 17.01"/><polygon class="cls-1" points="429.04 17.01 423.03 17.01 436.38 0 442.39 0 429.04 17.01"/><polygon class="cls-1" points="450.23 17.01 443.71 17.01 457.06 0 463.58 0 450.23 17.01"/><polygon class="cls-1" points="471.42 17.01 464.39 17.01 477.75 0 484.78 0 471.42 17.01"/><polygon class="cls-1" points="492.62 17.01 485.08 17.01 498.43 0 505.97 0 492.62 17.01"/><polygon class="cls-1" points="513.81 17.01 505.76 17.01 519.12 0 527.16 0 513.81 17.01"/><polygon class="cls-1" points="535 17.01 526.45 17.01 539.8 0 548.36 0 535 17.01"/><polygon class="cls-1" points="556.19 17.01 547.13 17.01 560.48 0 569.55 0 556.19 17.01"/><polygon class="cls-1" points="577.39 17.01 567.81 17.01 581.16 0 590.74 0 577.39 17.01"/><polygon class="cls-1" points="598.58 17.01 588.5 17.01 601.85 0 611.93 0 598.58 17.01"/><polygon class="cls-1" points="619.77 17.01 609.18 17.01 622.53 0 633.12 0 619.77 17.01"/><polygon class="cls-1" points="640.96 17.01 629.86 17.01 643.22 0 654.32 0 640.96 17.01"/><polygon class="cls-1" points="662.16 17.01 650.54 17.01 663.9 0 675.51 0 662.16 17.01"/><polygon class="cls-1" points="683.35 17.01 671.23 17.01 684.58 0 696.7 0 683.35 17.01"/><polygon class="cls-1" points="704.54 17.01 691.91 17.01 705.27 0 717.89 0 704.54 17.01"/><polygon class="cls-1" points="725.73 17.01 712.6 17.01 725.95 0 739.09 0 725.73 17.01"/><polygon class="cls-1" points="746.92 17.01 733.28 17.01 746.63 0 760.28 0 746.92 17.01"/><polygon class="cls-1" points="768.12 17.01 753.96 17.01 767.32 0 781.47 0 768.12 17.01"/><polygon class="cls-1" points="789.31 17.01 774.65 17.01 788 0 802.66 0 789.31 17.01"/><polygon class="cls-1" points="810.5 17.01 795.33 17.01 808.68 0 823.86 0 810.5 17.01"/><polygon class="cls-1" points="831.7 17.01 816.01 17.01 829.37 0 845.05 0 831.7 17.01"/><polygon class="cls-1" points="852.89 17.01 836.7 17.01 850.05 0 866.24 0 852.89 17.01"/><polygon class="cls-1" points="874.08 17.01 857.38 17.01 870.73 0 887.43 0 874.08 17.01"/><polygon class="cls-1" points="895.27 17.01 878.06 17.01 891.42 0 908.63 0 895.27 17.01"/><polygon class="cls-1" points="916.47 17.01 898.75 17.01 912.1 0 929.82 0 916.47 17.01"/><polygon class="cls-1" points="937.66 17.01 919.43 17.01 932.78 0 951.01 0 937.66 17.01"/><polygon class="cls-1" points="958.85 17.01 940.11 17.01 953.47 0 972.2 0 958.85 17.01"/><polygon class="cls-1" points="980.04 17.01 960.8 17.01 974.15 0 993.39 0 980.04 17.01"/><polygon class="cls-1" points="1001.74 17.01 981.99 17.01 995.34 0 1015.1 0 1001.74 17.01"/><path class="cls-2" d="M1027.24,5.42l-.07,1.11h-2.3l-.26,1.26a1.84,1.84,0,0,1,1-.28,2,2,0,0,1,2,2.13,2.24,2.24,0,0,1-2.29,2.38,2,2,0,0,1-2.18-1.95h1.17a.89.89,0,0,0,1,.86c.64,0,1-.47,1-1.24s-.38-1.18-1-1.18a1.27,1.27,0,0,0-1,.53l-1.06-.16.65-3.46Z"/><path class="cls-2" d="M1033.31,8.63c0,2.11-.89,3.38-2.37,3.38s-2.38-1.26-2.38-3.43.9-3.33,2.37-3.33S1033.31,6.53,1033.31,8.63Zm-3.08-2a3.82,3.82,0,0,0-.42,1.93,3.86,3.86,0,0,0,.42,2,.83.83,0,0,0,1.41,0,3.88,3.88,0,0,0,.42-2,3.86,3.86,0,0,0-.42-2,.82.82,0,0,0-.71-.39A.8.8,0,0,0,1030.23,6.67Z"/><path class="cls-2" d="M1038.51,5.25l1.4,2.66,1.38-2.66h1.41l-2.17,4v2.63h-1.28V9.28l-2.17-4Z"/><path class="cls-2" d="M1047.83,7.91V9h-2.65v1.82h3v1.09h-4.3V5.25h4.19V6.33h-2.91V7.91Z"/><path class="cls-2" d="M1052.52,5.25l2.27,6.67h-1.33l-.41-1.39h-2.35l-.42,1.39H1049l2.25-6.67Zm-.65,1.47L1051,9.43h1.71Z"/><path class="cls-2" d="M1057.75,5.25a4,4,0,0,1,2.09.32,1.89,1.89,0,0,1,.95,1.73,1.91,1.91,0,0,1-1.18,1.85l1.53,2.77h-1.49l-1.36-2.55h-.92v2.55h-1.28V5.25Zm.08,3a2.92,2.92,0,0,0,1.09-.11.9.9,0,0,0,.56-.88.86.86,0,0,0-.42-.78c-.26-.15-.45-.17-1.32-.17h-.37V8.27Z"/><path class="cls-2" d="M1065.47,7.21a1,1,0,0,0-1.09-1c-.56,0-1,.31-1,.72a.59.59,0,0,0,.34.51,9.51,9.51,0,0,0,1.09.46c1.18.48,1.34.56,1.62.87a1.7,1.7,0,0,1,.43,1.2c0,1.26-.92,2.06-2.38,2.06a2.29,2.29,0,0,1-2.6-2.4h1.24a1.25,1.25,0,0,0,1.37,1.29c.64,0,1.06-.29,1.06-.71a.71.71,0,0,0-.46-.64,8.11,8.11,0,0,0-1.15-.5,3.89,3.89,0,0,1-1.4-.82,1.72,1.72,0,0,1-.44-1.19,2,2,0,0,1,2.27-2,2.31,2.31,0,0,1,2,.93,2.11,2.11,0,0,1,.33,1.16Z"/><path class="cls-2" d="M1073.69,5.21l2.3,6.71h-.78l-.59-1.77h-2.51l-.6,1.77h-.77l2.3-6.71Zm-.33,1-1,3.32h2.1Z"/><path class="cls-2" d="M1078.59,5.25l1.87,5.85,1.88-5.85h1.13v6.67h-.71V6l-1.92,5.92h-.75L1078.17,6v5.92h-.71V5.25Z"/><path class="cls-2" d="M1090.32,8.6v2.74a3.76,3.76,0,0,1-2.2.69c-1.79,0-2.88-1.31-2.88-3.47s1.09-3.44,2.78-3.44a2.06,2.06,0,0,1,2.21,2h-.7a1.43,1.43,0,0,0-1.51-1.3c-1.22,0-2,1.06-2,2.79s.76,2.8,2.09,2.8a3,3,0,0,0,1.51-.44V9.25h-1.35V8.6Z"/></svg>